<svg width="1423" height="952" viewBox="0 0 1423 952" fill="none" xmlns="http://www.w3.org/2000/svg">
<g clip-path="url(#clip0_104_2)">
<path d="M1423 0H0V948.21H1423V0Z" fill="url(#paint0_linear_104_2)"/>
<path opacity="0.09" d="M1423.05 488.442C1393.27 489.219 1350.03 493.457 1309.35 508.877C1238.19 535.952 1243.89 582.684 1175.59 580.212C1107.28 577.74 1098.75 560.53 1041.85 592.501C984.94 624.473 976.343 644.154 908.036 629.534C839.729 614.914 797.52 561.26 703.374 569.524C609.228 577.787 620.605 609.852 546.621 612.301C472.637 614.749 418.557 649.193 373.003 602.46C327.45 555.728 321.797 494.163 239.263 494.163C156.729 494.163 176.656 555.61 105.499 523.592C49.9819 498.636 48.1918 442.204 0 420.992V948.21H1423.05V488.442Z" fill="white"/>
<path style="mix-blend-mode:overlay" d="M1002.79 726.342C1002.79 848.765 862.977 948.21 740.377 948.21C617.778 948.21 456.362 846.976 456.362 724.553C456.362 602.131 617.778 504.475 740.377 504.475C862.977 504.475 1002.79 603.802 1002.79 726.342Z" fill="url(#paint1_radial_104_2)"/>
<path d="M894.307 745.227C916.243 655.351 861.132 564.718 771.213 542.792C681.294 520.866 590.618 575.95 568.681 665.826C546.744 755.701 601.855 846.335 691.774 868.261C781.693 890.186 872.37 835.102 894.307 745.227Z" fill="url(#paint2_radial_104_2)"/>
<path d="M1423.05 586.498C1404.53 581.79 1383.62 576.281 1377.63 574.727C1368.26 572.862 1358.74 571.916 1349.18 571.902L1315.03 597.493L1278.05 600.341L1246.74 623.084L1215.44 651.547C1215.44 651.547 1169.91 654.372 1161.27 660.069C1152.62 665.767 1124.26 679.987 1124.26 679.987L1084.43 682.835C1084.43 682.835 1030.26 677.138 1018.98 677.138C1007.69 677.138 979.122 671.441 970.596 671.441C962.069 671.441 895.222 652.959 895.222 652.959C895.222 652.959 848.114 670.334 839.564 673.183C831.014 676.031 810.639 697.243 810.639 697.243L785.672 722.693C785.672 722.693 742.968 728.414 734.442 728.414C725.915 728.414 705.988 711.346 705.988 711.346C705.988 711.346 663.285 705.648 654.758 702.8C646.231 699.951 617.754 699.974 609.228 697.126C600.701 694.277 572.224 688.58 549.447 677.209C526.671 665.837 509.617 651.618 501.067 648.769C492.517 645.92 458.387 634.643 441.31 637.374C424.234 640.105 392.93 645.92 373.003 645.92C353.077 645.92 318.947 645.92 287.643 637.374C256.34 628.828 190.883 591.866 179.506 583.32C168.129 574.774 111.199 588.994 79.8956 600.388C63.1722 606.462 28.5947 612.536 0 616.868V952.071H1423.05V586.498Z" fill="url(#paint3_linear_104_2)"/>
<path opacity="0.55" d="M620.817 890.695L1005.34 885.633L1095.13 795.864L1138.04 737.831L1117.03 680.669L1084.39 683.024C1084.39 683.024 1030.21 677.326 1018.93 677.326C1012 677.326 998.766 675.231 987.531 673.583C983.692 682.058 978.51 691.075 972.339 696.137C958.442 707.508 916.704 713.818 905.304 714.971C893.903 716.125 878.758 733.947 869.972 741.528C861.187 749.108 833.275 771.874 818.153 775.665C803.031 779.455 775.143 783.245 763.767 780.726C752.39 778.207 735.926 780.726 718.213 769.332C700.5 757.937 691.667 751.627 673.955 746.589C656.242 741.551 618.296 752.899 609.44 746.589C600.584 740.28 553.782 712.452 531.028 694.795C508.275 677.138 512.044 666.968 479.209 649.287C469.558 644.117 459.379 639.997 448.848 636.998C446.351 636.914 443.852 637.055 441.381 637.421C424.705 640.199 394.508 645.685 374.535 645.944C361.862 653.784 350.038 661.247 347.659 660.658C342.595 659.387 308.442 683.424 308.442 683.424C308.442 683.424 283.027 705.813 275.96 707.814C287.738 714.877 355.173 771.851 355.173 771.851L620.817 890.695Z" fill="#282A57"/>
<path d="M275.96 704.024C274.735 703.294 274.099 703.106 274.217 703.576C274.335 704.047 274.995 704.283 275.96 704.024Z" fill="#282A57"/>
<path d="M1423.05 667.768C1392.43 655.172 1334.44 630.382 1299.62 623.86C1254.09 615.314 1256.94 612.466 1234.17 606.792C1211.39 601.118 1145.96 589.723 1128.88 603.943C1111.8 618.163 1046.44 669.369 1032.12 677.891C1017.8 686.414 960.962 706.354 946.735 720.574C932.508 734.794 804.445 800.219 767.465 794.522C730.485 788.825 582.47 740.374 528.414 717.726C474.357 695.077 414.576 657.997 386.099 640.929C357.622 623.86 280.812 589.723 263.736 589.723C246.659 589.723 166.928 615.409 149.851 618.163C132.775 620.918 84.3944 638.08 47.4851 638.08C33.7059 638.08 16.3936 639.257 0.0705566 640.741V948.21H1423.05V667.768Z" fill="url(#paint4_linear_104_2)"/>
<path d="M47.485 638.08C33.7059 638.08 16.3936 639.257 0.0705566 640.741V948.21H566.548C417.544 874.167 223.222 774.205 211.61 750.992C192.649 713.064 321.655 648.58 317.863 631.512C314.071 614.443 263.689 589.723 263.689 589.723C246.612 589.723 166.928 615.314 149.851 618.163C132.775 621.012 84.3944 638.08 47.485 638.08Z" fill="url(#paint5_linear_104_2)"/>
<path d="M1234.12 606.792C1214.24 601.824 1161.74 592.502 1137.41 599.729V603.072C1137.41 603.072 1120.33 641 1124.15 659.952C1127.96 678.904 1188.64 716.855 1188.64 756.665C1188.64 781.762 1069.64 879.088 980.159 948.21H1423.05V667.768C1392.43 655.172 1334.44 630.382 1299.62 623.861C1254.05 615.409 1256.9 612.466 1234.12 606.792Z" fill="url(#paint6_linear_104_2)"/>
<path opacity="0.55" d="M-2.17955e-05 837.158C3.8393 874.379 7.81995 912.848 11.4944 948.21H1423.05V564.156L1359.45 572.726C1359.45 572.726 1372.74 601.165 1361.36 620.141C1349.98 639.116 1306.38 659.952 1281.72 663.742C1257.06 667.532 1232.4 682.718 1207.74 690.298C1183.08 697.879 1194.45 703.576 1158.42 733.923C1122.38 764.27 1120.45 785.129 1052.16 807.871C983.88 830.613 852.943 842.008 788.357 840.125C723.772 838.241 558.775 798.383 524.551 792.709C490.327 787.036 416.531 750.992 384.309 732.016C352.087 713.041 287.502 688.391 266.539 682.718C245.575 677.044 154.609 680.811 131.833 675.137C109.056 669.463 95.7947 639.093 88.1867 639.093C82.6515 639.093 28.736 647.168 -0.0942383 653.736L-2.17955e-05 837.158Z" fill="#282A57"/>
<path d="M1423.05 581.177C1415.56 589.724 1339.48 638.08 1328.08 640.929C1316.68 643.778 1279.7 666.52 1237.02 695.078C1194.34 723.635 1145.96 794.64 1108.95 811.709C1071.95 828.777 1012.19 854.368 983.739 854.368C955.285 854.368 778.818 857.217 756.064 854.368C733.311 851.519 508.487 808.86 468.704 797.489C428.921 786.117 320.737 723.517 295.11 715.089C274.688 708.285 78.6236 641.753 0.117676 615.103V948.21H1423.05V581.177Z" fill="#282A57"/>
<path opacity="0.09" d="M1399.35 155.5C1393.65 174.476 1408.77 178.266 1401.24 191.544C1393.7 204.822 1384.16 191.544 1384.16 202.915C1384.16 214.286 1380.37 216.193 1378.48 227.565C1376.6 238.936 1382.27 238.959 1378.48 252.214C1374.69 265.468 1369.06 261.631 1359.5 286.351C1349.93 311.071 1357.59 307.21 1350.08 322.395C1342.56 337.58 1342.49 339.463 1323.53 360.322C1304.57 381.181 1300.75 383.088 1281.77 398.25C1262.78 413.411 1272.35 415.318 1251.43 436.177C1230.52 457.036 1213.42 476.012 1190.64 489.266C1167.86 502.521 1158.39 510.149 1135.69 515.823C1112.98 521.496 1095.83 525.24 1074.96 534.798C1054.09 544.356 1038.93 546.169 1035.13 548.076C1031.34 549.983 1057.89 551.867 1084.46 544.262C1111.03 536.658 1103.44 542.379 1139.48 531.008C1175.52 519.636 1167.93 523.403 1211.58 502.544C1255.22 481.686 1251.43 462.734 1279.88 453.246C1308.34 443.758 1323.53 432.387 1333 419.109C1342.47 405.831 1338.7 400.157 1361.48 398.25C1384.25 396.343 1393.72 388.833 1397.51 379.274C1401.31 369.716 1414.47 364.113 1423.07 360.44V119.456C1414.26 129.462 1402.74 144.176 1399.35 155.5Z" fill="white"/>
<path opacity="0.09" d="M1017.02 548.076C1017.02 548.076 1006.59 540.472 1000.91 547.111C995.233 553.75 982.867 547.111 984.775 554.692C986.683 562.273 991.417 565.145 999.944 561.331C1008.47 557.517 1015.14 559.447 1018.93 555.657C1022.72 551.867 1017.02 548.076 1017.02 548.076Z" fill="white"/>
<path opacity="0.09" d="M1336.72 276.887C1332.72 284.08 1329.56 291.712 1327.3 299.629C1322.59 314.814 1322.59 311.024 1311.16 329.034C1299.74 347.044 1296 349.893 1282.71 361.264C1269.43 372.635 1261.84 381.181 1253.29 387.82C1244.74 394.459 1236.22 402.982 1232.42 403.947C1228.63 404.912 1240.97 387.82 1250.44 380.24C1259.91 372.659 1262.78 369.81 1275.1 350.835C1287.42 331.859 1278.92 329.034 1295.03 312.907C1311.14 296.78 1311.16 295.839 1319.69 286.351C1328.22 276.863 1332.98 272.225 1338.68 265.492C1344.38 258.759 1352.81 245.598 1351.02 254.121C1349.23 262.643 1336.72 276.887 1336.72 276.887Z" fill="white"/>
<path opacity="0.09" d="M467.762 506.335C446.893 498.754 431.7 498.754 401.339 489.266C370.978 479.779 367.186 468.407 336.848 460.827C306.51 453.246 296.994 453.246 266.633 441.875C236.272 430.504 230.595 421.016 196.442 403.947C162.288 386.879 160.38 373.601 128.135 352.742C95.8889 331.883 111.081 318.605 86.3966 295.839C61.7119 273.073 67.412 261.702 42.7743 231.355C32.1471 217.835 16.9281 208.679 0 205.623V396.319C6.80778 396.077 13.5407 394.815 19.9739 392.576C38.9585 386.902 29.3956 386.902 48.4509 388.786C67.5062 390.669 59.8275 381.205 78.8122 390.693C97.7968 400.18 99.6811 417.225 128.135 436.201C156.588 455.176 183.157 451.363 211.61 460.85C240.064 470.338 255.256 472.221 291.294 472.221C327.332 472.221 325.448 476.035 359.601 489.29C393.755 502.545 384.262 500.685 412.739 513.963C441.216 527.241 443.077 517.753 465.854 519.637C488.631 521.52 488.631 513.939 467.762 506.335Z" fill="white"/>
<path opacity="0.09" d="M147.096 276.887C131.927 265.492 135.719 261.702 126.227 252.214C116.734 242.726 101.66 231.355 88.2808 216.194C74.9021 201.032 84.4886 195.335 74.9963 183.963C65.504 172.592 65.5746 166.895 57.9195 151.71C50.2644 136.525 52.1959 128.968 37.0506 119.48C21.9053 109.992 31.374 92.9235 18.2073 66.3672C14.0089 57.7326 7.80674 50.2258 0.117676 44.4724V164.847C13.6142 178.572 18.6783 176.383 42.7742 197.218C71.2276 221.891 57.9431 218.101 69.3433 233.262C80.7435 248.424 84.5122 250.331 107.289 265.492C130.066 280.654 124.366 280.677 147.119 290.141C169.872 299.606 177.48 314.814 181.273 307.21C185.065 299.606 162.288 288.164 147.096 276.887Z" fill="white"/>
<path d="M1293.1 170.685C1293.1 170.969 1293.01 171.247 1292.86 171.483C1292.7 171.719 1292.47 171.903 1292.21 172.012C1291.95 172.121 1291.66 172.149 1291.38 172.094C1291.1 172.038 1290.85 171.902 1290.65 171.701C1290.44 171.5 1290.31 171.244 1290.25 170.965C1290.2 170.687 1290.23 170.398 1290.33 170.136C1290.44 169.873 1290.63 169.649 1290.86 169.491C1291.1 169.333 1291.38 169.249 1291.66 169.249C1291.85 169.246 1292.04 169.281 1292.22 169.352C1292.39 169.423 1292.55 169.529 1292.69 169.663C1292.82 169.797 1292.92 169.956 1293 170.132C1293.07 170.308 1293.1 170.496 1293.1 170.685V170.685Z" fill="white"/>
<path d="M303.165 252.473C304.349 252.473 305.309 251.514 305.309 250.331C305.309 249.147 304.349 248.188 303.165 248.188C301.982 248.188 301.022 249.147 301.022 250.331C301.022 251.514 301.982 252.473 303.165 252.473Z" fill="white"/>
<path d="M1175.73 460.591C1175.73 461.015 1175.6 461.429 1175.37 461.781C1175.13 462.134 1174.8 462.408 1174.41 462.57C1174.01 462.733 1173.58 462.775 1173.17 462.692C1172.75 462.61 1172.37 462.406 1172.07 462.106C1171.77 461.806 1171.57 461.425 1171.48 461.009C1171.4 460.593 1171.44 460.163 1171.61 459.771C1171.77 459.38 1172.04 459.045 1172.39 458.81C1172.75 458.574 1173.16 458.449 1173.59 458.449C1174.15 458.449 1174.7 458.674 1175.1 459.076C1175.5 459.478 1175.73 460.023 1175.73 460.591Z" fill="white"/>
<path d="M452.334 330.211C453.518 330.211 454.477 329.252 454.477 328.069C454.477 326.886 453.518 325.927 452.334 325.927C451.15 325.927 450.19 326.886 450.19 328.069C450.19 329.252 451.15 330.211 452.334 330.211Z" fill="white"/>
<path d="M923.11 190.132C924.294 190.132 925.254 189.173 925.254 187.989C925.254 186.806 924.294 185.847 923.11 185.847C921.927 185.847 920.967 186.806 920.967 187.989C920.967 189.173 921.927 190.132 923.11 190.132Z" fill="white"/>
<path d="M517.084 491.173C518.268 491.173 519.228 490.214 519.228 489.031C519.228 487.848 518.268 486.889 517.084 486.889C515.9 486.889 514.941 487.848 514.941 489.031C514.941 490.214 515.9 491.173 517.084 491.173Z" fill="white"/>
<path d="M1015.84 497.106C1017.03 497.106 1017.99 496.147 1017.99 494.964C1017.99 493.78 1017.03 492.821 1015.84 492.821C1014.66 492.821 1013.7 493.78 1013.7 494.964C1013.7 496.147 1014.66 497.106 1015.84 497.106Z" fill="white"/>
<path d="M773.235 128.967C773.235 129.391 773.11 129.805 772.874 130.158C772.639 130.51 772.304 130.785 771.912 130.947C771.52 131.109 771.09 131.151 770.674 131.069C770.258 130.986 769.876 130.782 769.576 130.482C769.277 130.183 769.072 129.801 768.99 129.385C768.907 128.97 768.949 128.539 769.112 128.148C769.274 127.756 769.549 127.422 769.901 127.186C770.254 126.951 770.668 126.825 771.092 126.825C771.374 126.822 771.654 126.875 771.916 126.982C772.177 127.088 772.415 127.246 772.615 127.446C772.814 127.645 772.972 127.883 773.079 128.144C773.185 128.405 773.239 128.685 773.235 128.967Z" fill="white"/>
<path d="M428.944 139.821C431.455 139.821 433.49 137.786 433.49 135.277C433.49 132.767 431.455 130.733 428.944 130.733C426.434 130.733 424.398 132.767 424.398 135.277C424.398 137.786 426.434 139.821 428.944 139.821Z" fill="white"/>
<path d="M181.249 263.209C183.122 263.209 184.641 261.691 184.641 259.818C184.641 257.946 183.122 256.428 181.249 256.428C179.376 256.428 177.857 257.946 177.857 259.818C177.857 261.691 179.376 263.209 181.249 263.209Z" fill="white"/>
<path d="M101.189 543.886C101.189 544.561 100.988 545.221 100.613 545.782C100.238 546.344 99.7043 546.781 99.0803 547.04C98.4562 547.298 97.7695 547.366 97.107 547.234C96.4444 547.102 95.8359 546.777 95.3582 546.3C94.8806 545.822 94.5553 545.214 94.4235 544.552C94.2918 543.889 94.3594 543.203 94.6179 542.579C94.8764 541.956 95.3141 541.422 95.8758 541.047C96.4374 540.672 97.0978 540.472 97.7733 540.472C98.2226 540.469 98.6682 540.555 99.084 540.725C99.4997 540.896 99.8775 541.147 100.195 541.465C100.513 541.783 100.764 542.16 100.935 542.576C101.106 542.991 101.192 543.437 101.189 543.886V543.886Z" fill="white"/>
<path d="M1378.08 507.842C1378.09 508.518 1377.89 509.18 1377.52 509.745C1377.15 510.309 1376.61 510.75 1375.99 511.012C1375.37 511.274 1374.68 511.345 1374.01 511.216C1373.35 511.087 1372.74 510.764 1372.26 510.287C1371.78 509.811 1371.45 509.203 1371.32 508.54C1371.19 507.877 1371.25 507.189 1371.51 506.564C1371.77 505.939 1372.2 505.405 1372.77 505.028C1373.33 504.652 1373.99 504.451 1374.67 504.451C1375.57 504.451 1376.43 504.808 1377.07 505.443C1377.71 506.078 1378.08 506.94 1378.08 507.842Z" fill="white"/>
<path d="M65.5277 366.02C65.5277 366.919 65.2611 367.797 64.7616 368.544C64.262 369.291 63.5521 369.874 62.7214 370.218C61.8907 370.562 60.9767 370.652 60.0949 370.476C59.213 370.301 58.403 369.868 57.7673 369.233C57.1315 368.597 56.6985 367.788 56.5231 366.906C56.3477 366.025 56.4378 365.111 56.7818 364.281C57.1259 363.451 57.7086 362.741 58.4561 362.242C59.2037 361.743 60.0826 361.476 60.9817 361.476C62.1874 361.476 63.3437 361.955 64.1962 362.807C65.0487 363.659 65.5277 364.815 65.5277 366.02Z" fill="white"/>
<g opacity="0.55">
<path d="M1309.23 41.247C1309.23 41.532 1309.31 41.8119 1309.46 42.0512C1309.62 42.2904 1309.84 42.4781 1310.1 42.5904C1310.37 42.7028 1310.66 42.7346 1310.94 42.6819C1311.22 42.6291 1311.47 42.4942 1311.68 42.2944C1311.88 42.0945 1312.02 41.8387 1312.08 41.5595C1312.14 41.2803 1312.11 40.9903 1312 40.7265C1311.89 40.4627 1311.71 40.2371 1311.47 40.0782C1311.23 39.9193 1310.96 39.8345 1310.67 39.8344C1310.48 39.8313 1310.3 39.8655 1310.12 39.9351C1309.95 40.0047 1309.79 40.1083 1309.66 40.2397C1309.52 40.3712 1309.42 40.528 1309.34 40.7009C1309.27 40.8739 1309.23 41.0595 1309.23 41.247V41.247Z" fill="white"/>
<path d="M1131.38 182.292C1132.56 182.292 1133.52 181.333 1133.52 180.149C1133.52 178.966 1132.56 178.007 1131.38 178.007C1130.19 178.007 1129.23 178.966 1129.23 180.149C1129.23 181.333 1130.19 182.292 1131.38 182.292Z" fill="white"/>
<path d="M260.956 392.576C262.14 392.576 263.1 391.617 263.1 390.434C263.1 389.251 262.14 388.292 260.956 388.292C259.773 388.292 258.813 389.251 258.813 390.434C258.813 391.617 259.773 392.576 260.956 392.576Z" fill="white"/>
<path d="M701.395 313.143C702.579 313.143 703.539 312.184 703.539 311C703.539 309.817 702.579 308.858 701.395 308.858C700.212 308.858 699.252 309.817 699.252 311C699.252 312.184 700.212 313.143 701.395 313.143Z" fill="white"/>
<path d="M511.408 119.951C512.591 119.951 513.551 118.991 513.551 117.808C513.551 116.625 512.591 115.666 511.408 115.666C510.224 115.666 509.264 116.625 509.264 117.808C509.264 118.991 510.224 119.951 511.408 119.951Z" fill="white"/>
<path d="M418.675 426.949C419.859 426.949 420.818 425.989 420.818 424.806C420.818 423.623 419.859 422.664 418.675 422.664C417.491 422.664 416.531 423.623 416.531 424.806C416.531 425.989 417.491 426.949 418.675 426.949Z" fill="white"/>
<path d="M663.45 60.9288C664.633 60.9288 665.593 59.9696 665.593 58.7864C665.593 57.6032 664.633 56.644 663.45 56.644C662.266 56.644 661.306 57.6032 661.306 58.7864C661.306 59.9696 662.266 60.9288 663.45 60.9288Z" fill="white"/>
<path d="M1005.6 69.6632C1008.11 69.6632 1010.14 67.6289 1010.14 65.1194C1010.14 62.61 1008.11 60.5757 1005.6 60.5757C1003.09 60.5757 1001.05 62.61 1001.05 65.1194C1001.05 67.6289 1003.09 69.6632 1005.6 69.6632Z" fill="white"/>
<path d="M1249.88 189.637C1249.88 190.308 1250.08 190.963 1250.45 191.521C1250.82 192.078 1251.35 192.513 1251.97 192.769C1252.59 193.026 1253.27 193.093 1253.93 192.962C1254.59 192.831 1255.19 192.509 1255.67 192.034C1256.14 191.56 1256.46 190.956 1256.6 190.299C1256.73 189.641 1256.66 188.959 1256.4 188.34C1256.15 187.72 1255.71 187.191 1255.15 186.818C1254.6 186.446 1253.94 186.247 1253.27 186.247C1252.82 186.247 1252.38 186.335 1251.97 186.505C1251.56 186.675 1251.19 186.925 1250.87 187.24C1250.56 187.555 1250.31 187.929 1250.14 188.34C1249.96 188.751 1249.88 189.192 1249.88 189.637V189.637Z" fill="white"/>
<path d="M326.979 43.2247C328.852 43.2247 330.37 41.7068 330.37 39.8345C330.37 37.9622 328.852 36.4443 326.979 36.4443C325.105 36.4443 323.587 37.9622 323.587 39.8345C323.587 41.7068 325.105 43.2247 326.979 43.2247Z" fill="white"/>
<path d="M757.666 170.285C759.539 170.285 761.058 168.767 761.058 166.895C761.058 165.023 759.539 163.505 757.666 163.505C755.793 163.505 754.274 165.023 754.274 166.895C754.274 168.767 755.793 170.285 757.666 170.285Z" fill="white"/>
<path d="M1177.78 59.1867C1177.85 60.0401 1178.24 60.8356 1178.87 61.4155C1179.5 61.9953 1180.32 62.3172 1181.18 62.3172C1182.04 62.3172 1182.86 61.9953 1183.49 61.4155C1184.12 60.8356 1184.51 60.0401 1184.59 59.1867C1184.62 58.7162 1184.57 58.2426 1184.41 57.796C1184.26 57.3494 1184.01 56.9394 1183.69 56.5919C1183.37 56.2445 1182.99 55.9671 1182.55 55.7774C1182.12 55.5877 1181.65 55.4897 1181.18 55.4897C1180.71 55.4897 1180.24 55.5877 1179.81 55.7774C1179.38 55.9671 1178.99 56.2445 1178.67 56.5919C1178.35 56.9394 1178.1 57.3494 1177.95 57.796C1177.8 58.2426 1177.74 58.7162 1177.78 59.1867V59.1867Z" fill="white"/>
<path d="M1333.35 473.705C1333.35 474.382 1333.54 475.045 1333.92 475.61C1334.29 476.175 1334.83 476.616 1335.45 476.877C1336.08 477.139 1336.76 477.208 1337.43 477.077C1338.09 476.946 1338.7 476.621 1339.18 476.142C1339.66 475.663 1339.99 475.053 1340.12 474.388C1340.25 473.724 1340.18 473.036 1339.92 472.411C1339.66 471.786 1339.22 471.253 1338.65 470.88C1338.09 470.507 1337.42 470.31 1336.74 470.315C1335.85 470.321 1334.99 470.68 1334.35 471.314C1333.72 471.949 1333.36 472.807 1333.35 473.705V473.705Z" fill="white"/>
<path d="M56.4593 437.684C56.464 438.354 56.6668 439.007 57.0424 439.561C57.4179 440.116 57.9492 440.547 58.5694 440.8C59.1895 441.053 59.8708 441.116 60.5271 440.983C61.1835 440.849 61.7857 440.525 62.2577 440.05C62.7297 439.575 63.0504 438.971 63.1794 438.314C63.3083 437.657 63.2398 436.976 62.9824 436.358C62.725 435.74 62.2903 435.212 61.733 434.84C61.1758 434.469 60.5209 434.271 59.8511 434.271C59.4028 434.267 58.9584 434.354 58.5439 434.524C58.1294 434.695 57.7532 434.947 57.4373 435.265C57.1214 435.583 56.8722 435.961 56.7042 436.376C56.5363 436.791 56.453 437.236 56.4593 437.684V437.684Z" fill="white"/>
<path d="M1373.54 300.383C1376.05 300.383 1378.08 298.348 1378.08 295.839C1378.08 293.329 1376.05 291.295 1373.54 291.295C1371.03 291.295 1368.99 293.329 1368.99 295.839C1368.99 298.348 1371.03 300.383 1373.54 300.383Z" fill="white"/>
</g>
</g>
<defs>
<linearGradient id="paint0_linear_104_2" x1="711.5" y1="1226.89" x2="711.5" y2="-36.044" gradientUnits="userSpaceOnUse">
<stop stop-color="#9C40E0"/>
<stop offset="0.04" stop-color="#9E45DC"/>
<stop offset="0.09" stop-color="#A554D1"/>
<stop offset="0.14" stop-color="#AF6CBF"/>
<stop offset="0.19" stop-color="#BE8FA5"/>
<stop offset="0.25" stop-color="#D1BB85"/>
<stop offset="0.3" stop-color="#E8F05D"/>
<stop offset="0.32" stop-color="#ECF654"/>
<stop offset="0.44" stop-color="#E5A154"/>
<stop offset="0.52" stop-color="#E06B54"/>
<stop offset="0.56" stop-color="#DE5654"/>
<stop offset="0.6" stop-color="#CF5359"/>
<stop offset="0.69" stop-color="#A74B67"/>
<stop offset="0.82" stop-color="#673D7E"/>
<stop offset="0.97" stop-color="#102B9C"/>
<stop offset="1" stop-color="#0028A2"/>
</linearGradient>
<radialGradient id="paint1_radial_104_2" cx="0" cy="0" r="1" gradientUnits="userSpaceOnUse" gradientTransform="translate(734.3 721.963) scale(222.822 222.715)">
<stop stop-color="white"/>
<stop offset="0.09" stop-color="white" stop-opacity="0.98"/>
<stop offset="0.22" stop-color="#FDFEFF" stop-opacity="0.91"/>
<stop offset="0.36" stop-color="#FBFDFF" stop-opacity="0.8"/>
<stop offset="0.52" stop-color="#F8FCFF" stop-opacity="0.65"/>
<stop offset="0.68" stop-color="#F4FAFF" stop-opacity="0.46"/>
<stop offset="0.85" stop-color="#EFF7FF" stop-opacity="0.23"/>
<stop offset="1" stop-color="#EAF5FF" stop-opacity="0"/>
</radialGradient>
<radialGradient id="paint2_radial_104_2" cx="0" cy="0" r="1" gradientUnits="userSpaceOnUse" gradientTransform="translate(745.755 733.937) scale(253.419 253.297)">
<stop stop-color="#DE5654"/>
<stop offset="0.17" stop-color="#E57343"/>
<stop offset="0.56" stop-color="#F3B21F"/>
<stop offset="0.85" stop-color="#FCDA09"/>
<stop offset="1" stop-color="#FFE900"/>
</radialGradient>
<linearGradient id="paint3_linear_104_2" x1="706.012" y1="525.805" x2="714.53" y2="904.114" gradientUnits="userSpaceOnUse">
<stop stop-color="#DE5654"/>
<stop offset="0.13" stop-color="#CF5254"/>
<stop offset="0.37" stop-color="#A74955"/>
<stop offset="0.7" stop-color="#683956"/>
<stop offset="1" stop-color="#282A57"/>
</linearGradient>
<linearGradient id="paint4_linear_104_2" x1="677.629" y1="326.656" x2="717.421" y2="892.698" gradientUnits="userSpaceOnUse">
<stop stop-color="#DE5654"/>
<stop offset="0.13" stop-color="#CF5254"/>
<stop offset="0.37" stop-color="#A74955"/>
<stop offset="0.7" stop-color="#683956"/>
<stop offset="1" stop-color="#282A57"/>
</linearGradient>
<linearGradient id="paint5_linear_104_2" x1="337.13" y1="525.357" x2="274.558" y2="838.276" gradientUnits="userSpaceOnUse">
<stop stop-color="#DE5654"/>
<stop offset="0.13" stop-color="#CF5254"/>
<stop offset="0.37" stop-color="#A74955"/>
<stop offset="0.7" stop-color="#683956"/>
<stop offset="1" stop-color="#282A57"/>
</linearGradient>
<linearGradient id="paint6_linear_104_2" x1="1283.14" y1="540.872" x2="1223.43" y2="839.524" gradientUnits="userSpaceOnUse">
<stop stop-color="#DE5654"/>
<stop offset="0.13" stop-color="#CF5254"/>
<stop offset="0.37" stop-color="#A74955"/>
<stop offset="0.7" stop-color="#683956"/>
<stop offset="1" stop-color="#282A57"/>
</linearGradient>
<clipPath id="clip0_104_2">
<rect width="1423" height="952" fill="white"/>
</clipPath>
</defs>
</svg>
